o RollText
v -7.0942394137382507 2.5 -0.37207013368606567
v -7.5468759536743164 2.5 0.521484375
v -7.5468759536743164 0 0.521484375
v -7.0942394137382507 0 -0.37207013368606567
v -8.14746242761612 2.5 1.1455078125
v -8.14746242761612 0 1.1455078125
v -8.8828134536743164 2.5 1.564453125
v -8.8828134536743164 0 1.564453125
v -8.0449228286743164 2.5 2.671875
v -8.0449228286743164 0 2.671875
v -7.0253915786743164 2.5 3.69140625
v -7.0253915786743164 0 3.69140625
v -8.2382822036743164 2.5 4.1953125
v -8.2382822036743164 0 4.1953125
v -9.4746103286743164 2.5 4.78125
v -9.4746103286743164 0 4.78125
v -10.230469703674316 2.5 3.69140625
v -10.230469703674316 0 3.69140625
v -11.021485328674316 2.5 2.19140625
v -11.021485328674316 0 2.19140625
v -11.033204078674316 2.5 2.19140625
v -11.033204078674316 0 2.19140625
v -11.091797828674316 2.5 4.2421875
v -11.091797828674316 0 4.2421875
v -14.390625953674316 2.5 4.2421875
v -14.390625953674316 0 4.2421875
v -14.572266578674316 2.5 0.029296875
v -14.572266578674316 0 0.029296875
v -14.812500953674316 2.5 -4.7578125
v -14.812500953674316 0 -4.7578125
v -11.871094703674316 2.5 -4.927734375
v -11.871094703674316 0 -4.927734375
v -10.716157233342528 2.5 -4.8724365234375
v -10.716157233342528 0 -4.8724365234375
v -9.7152113169431686 2.5 -4.70654296875
v -9.7152113169431686 0 -4.70654296875
v -8.86825698800385 2.5 -4.4300537109375
v -8.86825698800385 0 -4.4300537109375
v -8.1752942800521851 2.5 -4.04296875
v -8.1752942800521851 0 -4.04296875
v -7.6363232266157866 2.5 -3.5452880859375
v -7.6363232266157866 0 -3.5452880859375
v -7.2513438612222672 2.5 -2.93701171875
v -7.2513438612222672 0 -2.93701171875
v -7.0203562173992395 2.5 -2.2181396484375
v -7.0203562173992395 0 -2.2181396484375
v -6.9433603286743164 2.5 -1.388671875
v -6.9433603286743164 0 -1.388671875
v -9.7207047939300537 2.5 -0.60058575868606567
v -10.072266578674316 2.5 -0.919921875
v -10.072266578674316 0 -0.919921875
v -9.7207047939300537 0 -0.60058575868606567
v -10.461915731430054 2.5 -1.0458984375
v -10.461915731430054 0 -1.0458984375
v -10.939454078674316 2.5 -1.072265625
v -10.939454078674316 0 -1.072265625
v -10.974610328674316 2.5 0.931640625
v -10.974610328674316 0 0.931640625
v -10.514650106430054 2.5 0.87744140625
v -10.514650106430054 0 0.87744140625
v -10.107422828674316 2.5 0.71484375
v -10.107422828674316 0 0.71484375
v -9.7294938564300537 2.5 0.36474618315696716
v -9.7294938564300537 0 0.36474618315696716
v -9.6035165786743164 2.5 -0.123046875
v -9.6035165786743164 0 -0.123046875
v 1.4333490654826164 2.5 0.54309092089533806
v 1.2333977818489075 2.5 1.4575196206569672
v 1.2333977818489075 0 1.4575196206569672
v 1.4333490654826164 0 0.54309092089533806
v 0.90014580637216568 2.5 2.2921142913401127
v 0.90014580637216568 0 2.2921142913401127
v 0.4335932731628418 2.5 3.046875
v 0.4335932731628418 0 3.046875
v -0.16516187787055969 2.5 3.7005612552165985
v -0.16516187787055969 0 3.7005612552165985
v -0.84228599071502686 2.5 4.1674801111221313
v -0.84228599071502686 0 4.1674801111221313
v -1.5977790653705597 2.5 4.4476315677165985
v -1.5977790653705597 0 4.4476315677165985
v -2.4316411018371582 2.5 4.541015625
v -2.4316411018371582 0 4.541015625
v -3.2882086522877216 2.5 4.4468991458415985
v -3.2882086522877216 0 4.4468991458415985
v -4.05908277630806 2.5 4.1645504236221313
v -4.05908277630806 0 4.1645504236221313
v -4.744263406842947 2.5 3.6939694583415985
v -4.744263406842947 0 3.6939694583415985
v -5.3437504768371582 2.5 3.03515625
v -5.3437504768371582 0 3.03515625
v -5.8026127815246582 2.5 2.2855224944651127
v -5.8026127815246582 0 2.2855224944651127
v -6.1303715705871582 2.5 1.4545899331569672
v -6.1303715705871582 0 1.4545899331569672
v -6.3270268440246582 2.5 0.54235849902033806
v -6.3270268440246582 0 0.54235849902033806
v -6.3925786018371582 2.5 -0.451171875
v -6.3925786018371582 0 -0.451171875
v -6.3211674690246582 2.5 -1.4963376894593239
v -6.3211674690246582 0 -1.4963376894593239
v -6.1069340705871582 2.5 -2.4228513836860657
v -6.1069340705871582 0 -2.4228513836860657
v -5.7498784065246582 2.5 -3.2307128235697746
v -5.7498784065246582 0 -3.2307128235697746
v -5.2500004768371582 2.5 -3.919921875
v -5.2500004768371582 0 -3.919921875
v -4.6695563420653343 2.5 -4.437744140625
v -4.6695563420653343 0 -4.437744140625
v -4.0063483119010925 2.5 -4.8076171875
v -4.0063483119010925 0 -4.8076171875
v -3.2603765204548836 2.5 -5.029541015625
v -3.2603765204548836 0 -5.029541015625
v -2.4316411018371582 2.5 -5.103515625
v -2.4316411018371582 0 -5.103515625
v -1.6157234013080597 2.5 -5.0291748046875
v -1.6157234013080597 0 -5.0291748046875
v -0.87890708446502686 2.5 -4.80615234375
v -0.87890708446502686 0 -4.80615234375
v -0.22119215130805969 2.5 -4.4344482421875
v -0.22119215130805969 0 -4.4344482421875
v 0.3574213981628418 2.5 -3.9140625
v 0.3574213981628418 0 -3.9140625
v 0.8572993278503418 2.5 -3.2230224609375
v 0.8572993278503418 0 -3.2230224609375
v 1.2143549919128418 2.5 -2.41552734375
v 1.2143549919128418 0 -2.41552734375
v 1.4285883903503418 2.5 -1.4915771484375
v 1.4285883903503418 0 -1.4915771484375
v 1.4999995231628418 2.5 -0.451171875
v 1.4999995231628418 0 -0.451171875
v -1.3872075751423836 2.5 -0.13256815820932388
v -1.5937506556510925 2.5 -0.64160138368606567
v -1.5937506556510925 0 -0.64160138368606567
v -1.3872075751423836 0 -0.13256815820932388
v -1.9379889592528343 2.5 -0.94702141731977463
v -1.9379889592528343 0 -0.94702141731977463
v -2.4199223518371582 2.5 -1.048828125
v -2.4199223518371582 0 -1.048828125
v -2.8890385627746582 2.5 -0.9462890625
v -2.8890385627746582 0 -0.9462890625
v -3.2241215705871582 2.5 -0.638671875
v -3.2241215705871582 0 -0.638671875
v -3.4251713752746582 2.5 -0.1259765625
v -3.4251713752746582 0 -0.1259765625
v -3.4921879768371582 2.5 0.591796875
v -3.4921879768371582 0 0.591796875
v -3.4218754768371582 2.5 1.22607421875
v -3.4218754768371582 0 1.22607421875
v -3.2109379768371582 2.5 1.81640625
v -3.2109379768371582 0 1.81640625
v -2.8579107224941254 2.5 2.29541015625
v -2.8579107224941254 0 2.29541015625
v -2.4316411018371582 2.5 2.455078125
v -2.4316411018371582 0 2.455078125
v -2.0068367719650269 2.5 2.29248046875
v -2.0068367719650269 0 2.29248046875
v -1.6347661018371582 2.5 1.8046875
v -1.6347661018371582 0 1.8046875
v -1.3974614143371582 2.5 1.20263671875
v -1.3974614143371582 0 1.20263671875
v -1.3183598518371582 2.5 0.580078125
v -1.3183598518371582 0 0.580078125
v 8.0625 2.5 3.3515625
v 7.921875 2.5 4.2421875
v 7.921875 0 4.2421875
v 8.0625 0 3.3515625
v 2.619140625 2.5 4.2421875
v 2.619140625 0 4.2421875
v 2.47265625 2.5 -0.29296875
v 2.47265625 0 -0.29296875
v 2.197265625 2.5 -4.7578125
v 2.197265625 0 -4.7578125
v 6.263671875 2.5 -4.7578125
v 6.263671875 0 -4.7578125
v 5.9296875 2.5 2.70703125
v 5.9296875 0 2.70703125
v 7.634765625 2.5 2.583984375
v 7.634765625 0 2.583984375
v 8.279296875 2.5 2.466796875
v 8.279296875 0 2.466796875
v 14.61328125 2.5 3.3515625
v 14.47265625 2.5 4.2421875
v 14.47265625 0 4.2421875
v 14.61328125 0 3.3515625
v 9.169921875 2.5 4.2421875
v 9.169921875 0 4.2421875
v 9.0234375 2.5 -0.29296875
v 9.0234375 0 -0.29296875
v 8.748046875 2.5 -4.7578125
v 8.748046875 0 -4.7578125
v 12.814453125 2.5 -4.7578125
v 12.814453125 0 -4.7578125
v 12.48046875 2.5 2.70703125
v 12.48046875 0 2.70703125
v 14.185546875 2.5 2.583984375
v 14.185546875 0 2.583984375
v 14.830078125 2.5 2.466796875
v 14.830078125 0 2.466796875
vn 1.91015625 0 0.603515625
vn 1.5175779461860657 0 1.0532230138778687
vn 1.04296875 0 1.3359375
vn 1.5263671875 0 -0.10253959894180298
vn 2.126953125 0 -1.857421875
vn 1.5234375 0 0.193359375
vn 1.08984375 0 2.44921875
vn -0.50390625 0 1.9921875
vn -2.58984375 0 1.546875
vn -1.5 0 0.802734375
vn 2.05078125 0 0.0703125
vn 2.05078125 0 3.357421875
vn -4.212890625 0 3.48046875
vn -9 0 0.421875
vn -4.95703125 0 -2.701171875
vn -0.1146240234375 0 -4.0963437203317881
vn 0.22119140625 0 -2.1558833867311478
vn 0.4423828125 0 -1.8479002453386784
vn 0.66357421875 0 -1.5399170368909836
vn 0.884765625 0 -1.2319337613880634
vn 1.10595703125 0 -0.92395041882991791
vn 1.3271484375 0 -0.615967009216547
vn 1.54833984375 0 -0.30798353254795074
vn 1.8460695147514343 0 0.073883196339011192
vn -0.796875 0 0.46875
vn -0.44531267881393433 0 0.7412109375
vn -0.15234375 0 0.8671875
vn 1.9775390625 0 0.5126945972442627
vn 1.94970703125 0 -0.4248039722442627
vn -0.216796875 0 -0.8671875
vn -0.51269522309303284 0 -0.78515625
vn -0.837890625 0 -0.50390625
vn -0.96533194184303284 0 -0.0087890625
vn 1.9086914956569672 0 0.26660174131393433
vn 1.7490233704447746 0 0.53320325911045074
vn 1.5893553793430328 0 0.79980450868606567
vn 1.4084469638764858 0 1.0653076842427254
vn 1.1206051111221314 0 1.2758792638778687
vn 0.7470703125 0 1.4326171875
vn 0.37353551387786865 0 1.5893551111221314
vn -0.000732421875 0 1.6904295869171619
vn -0.37646520137786865 0 1.6274416744709015
vn -0.7529296875 0 1.4560547545552254
vn -1.1293941736221314 0 1.2846677005290985
vn -1.4084469638764858 0 1.0583493746817112
vn -1.5805663168430328 0 0.78662109375
vn -1.7431639954447746 0 0.5244140625
vn -1.9057618081569672 0 0.26220703125
vn -2.0386961884796619 0 -0.005859375
vn -1.9716795086860657 0 -0.28564453125
vn -1.7343751341104507 0 -0.5712890625
vn -1.4970704913139343 0 -0.85693359375
vn -1.2070313170552254 0 -1.0803220644593239
vn -0.8876953125 0 -1.2436521649360657
vn -0.591796875 0 -1.4091798216104507
vn -0.2958984375 0 -1.5747072100639343
vn 0.0003662109375 0 -1.6446531191468239
vn 0.29736328125 0 -1.5527340173721314
vn 0.5947265625 0 -1.39453125
vn 0.89208984375 0 -1.2363284826278687
vn 1.21142578125 0 -1.0784914791584015
vn 1.49853515625 0 -0.85693359375
vn 1.7314453125 0 -0.5712890625
vn 1.96435546875 0 -0.28564453125
vn 2.0346680693328381 0 -0.0047606751322746277
vn -1.2216795086860657 0 0.27539080381393433
vn -0.81445325911045074 0 0.55078138411045074
vn -0.40722674131393433 0 0.82617169618606567
vn 0.00073235481977462769 0 0.95104960352182388
vn 0.41015625 0 0.80419921875
vn 0.8203125 0 0.5361328125
vn 1.23046875 0 0.26806640625
vn 1.35205078125 0 -0.0032958984375
vn 1.224609375 0 -0.28125
vn 1.0693359375 0 -0.56396475434303284
vn 0.638671875 0 -0.779296875
vn -0.0029296875 0 -0.85107395052909851
vn -0.650390625 0 -0.796875
vn -1.08984375 0 -0.60937535762786865
vn -1.224609375 0 -0.31640625
vn -1.3352048769593239 0 -0.010253839194774628
vn 1.775390625 0 0.357421875
vn 0.890625 0 5.443359375
vn -4.53515625 0 5.44921875
vn -4.46484375 0 -3.791015625
vn 7.46484375 0 -3.732421875
vn 7.341796875 0 -1.37109375
vn -0.240234375 0 -2.349609375
vn 0.767578125 0 -0.427734375
vn 0 1 0
g RollText
f 1//1 2//2 3//2 4//1
f 2//2 5//3 6//3 3//2
f 5//3 7//4 8//4 6//3
f 7//4 9//5 10//5 8//4
f 9//5 11//6 12//6 10//5
f 11//6 13//7 14//7 12//6
f 13//7 15//8 16//8 14//7
f 15//8 17//9 18//9 16//8
f 17//9 19//10 20//10 18//9
f 19//10 21//11 22//11 20//10
f 21//11 23//12 24//12 22//11
f 23//12 25//13 26//13 24//12
f 25//13 27//14 28//14 26//13
f 27//14 29//15 30//15 28//14
f 29//15 31//16 32//16 30//15
f 31//16 33//17 34//17 32//16
f 33//17 35//18 36//18 34//17
f 35//18 37//19 38//19 36//18
f 37//19 39//20 40//20 38//19
f 39//20 41//21 42//21 40//20
f 41//21 43//22 44//22 42//21
f 43//22 45//23 46//23 44//22
f 45//23 47//24 48//24 46//23
f 47//24 1//1 4//1 48//24
f 49//25 50//26 51//26 52//25
f 50//26 53//27 54//27 51//26
f 53//27 55//28 56//28 54//27
f 55//28 57//29 58//29 56//28
f 57//29 59//30 60//30 58//29
f 59//30 61//31 62//31 60//30
f 61//31 63//32 64//32 62//31
f 63//32 65//33 66//33 64//32
f 65//33 49//25 52//25 66//33
f 67//34 68//35 69//35 70//34
f 68//35 71//36 72//36 69//35
f 71//36 73//37 74//37 72//36
f 73//37 75//38 76//38 74//37
f 75//38 77//39 78//39 76//38
f 77//39 79//40 80//40 78//39
f 79//40 81//41 82//41 80//40
f 81//41 83//42 84//42 82//41
f 83//42 85//43 86//43 84//42
f 85//43 87//44 88//44 86//43
f 87//44 89//45 90//45 88//44
f 89//45 91//46 92//46 90//45
f 91//46 93//47 94//47 92//46
f 93//47 95//48 96//48 94//47
f 95//48 97//49 98//49 96//48
f 97//49 99//50 100//50 98//49
f 99//50 101//51 102//51 100//50
f 101//51 103//52 104//52 102//51
f 103//52 105//53 106//53 104//52
f 105//53 107//54 108//54 106//53
f 107//54 109//55 110//55 108//54
f 109//55 111//56 112//56 110//55
f 111//56 113//57 114//57 112//56
f 113//57 115//58 116//58 114//57
f 115//58 117//59 118//59 116//58
f 117//59 119//60 120//60 118//59
f 119//60 121//61 122//61 120//60
f 121//61 123//62 124//62 122//61
f 123//62 125//63 126//63 124//62
f 125//63 127//64 128//64 126//63
f 127//64 129//65 130//65 128//64
f 129//65 67//34 70//34 130//65
f 131//66 132//67 133//67 134//66
f 132//67 135//68 136//68 133//67
f 135//68 137//69 138//69 136//68
f 137//69 139//70 140//70 138//69
f 139//70 141//71 142//71 140//70
f 141//71 143//72 144//72 142//71
f 143//72 145//73 146//73 144//72
f 145//73 147//74 148//74 146//73
f 147//74 149//75 150//75 148//74
f 149//75 151//76 152//76 150//75
f 151//76 153//77 154//77 152//76
f 153//77 155//78 156//78 154//77
f 155//78 157//79 158//79 156//78
f 157//79 159//80 160//80 158//79
f 159//80 161//81 162//81 160//80
f 161//81 131//66 134//66 162//81
f 163//82 164//83 165//83 166//82
f 164//83 167//84 168//84 165//83
f 167//84 169//14 170//14 168//84
f 169//14 171//85 172//85 170//14
f 171//85 173//86 174//86 172//85
f 173//86 175//87 176//87 174//86
f 175//87 177//88 178//88 176//87
f 177//88 179//89 180//89 178//88
f 179//89 163//82 166//82 180//89
f 181//82 182//83 183//83 184//82
f 182//83 185//84 186//84 183//83
f 185//84 187//14 188//14 186//84
f 187//14 189//85 190//85 188//14
f 189//85 191//86 192//86 190//85
f 191//86 193//87 194//87 192//86
f 193//87 195//88 196//88 194//87
f 195//88 197//89 198//89 196//88
f 197//89 181//82 184//82 198//89
f 17//90 59//90 57//90
f 19//90 17//90 57//90
f 1//90 47//90 45//90
f 1//90 45//90 43//90
f 1//90 43//90 41//90
f 1//90 41//90 39//90
f 1//90 39//90 37//90
f 1//90 37//90 35//90
f 1//90 35//90 33//90
f 1//90 33//90 31//90
f 1//90 31//90 29//90
f 27//90 25//90 23//90
f 29//90 27//90 23//90
f 29//90 23//90 21//90
f 29//90 21//90 19//90
f 29//90 19//90 57//90
f 29//90 57//90 55//90
f 29//90 55//90 53//90
f 1//90 29//90 53//90
f 1//90 53//90 50//90
f 1//90 50//90 49//90
f 1//90 49//90 65//90
f 1//90 65//90 63//90
f 1//90 63//90 61//90
f 1//90 61//90 59//90
f 59//90 17//90 15//90
f 59//90 15//90 13//90
f 59//90 13//90 11//90
f 59//90 11//90 9//90
f 59//90 9//90 7//90
f 1//90 59//90 7//90
f 1//90 7//90 5//90
f 5//90 2//90 1//90
f 79//90 155//90 153//90
f 81//90 79//90 153//90
f 67//90 129//90 127//90
f 67//90 127//90 125//90
f 67//90 125//90 123//90
f 67//90 123//90 121//90
f 67//90 121//90 119//90
f 67//90 119//90 117//90
f 67//90 117//90 115//90
f 67//90 115//90 113//90
f 67//90 113//90 111//90
f 67//90 111//90 109//90
f 67//90 109//90 107//90
f 67//90 107//90 105//90
f 67//90 105//90 103//90
f 103//90 101//90 99//90
f 103//90 99//90 97//90
f 103//90 97//90 95//90
f 103//90 95//90 93//90
f 103//90 93//90 91//90
f 103//90 91//90 89//90
f 103//90 89//90 87//90
f 103//90 87//90 85//90
f 103//90 85//90 83//90
f 103//90 83//90 81//90
f 81//90 153//90 151//90
f 81//90 151//90 149//90
f 103//90 81//90 149//90
f 103//90 149//90 147//90
f 103//90 147//90 145//90
f 103//90 145//90 143//90
f 103//90 143//90 141//90
f 103//90 141//90 139//90
f 103//90 139//90 137//90
f 103//90 137//90 135//90
f 67//90 103//90 135//90
f 67//90 135//90 132//90
f 67//90 132//90 131//90
f 67//90 131//90 161//90
f 67//90 161//90 159//90
f 67//90 159//90 157//90
f 67//90 157//90 155//90
f 67//90 155//90 79//90
f 67//90 79//90 77//90
f 67//90 77//90 75//90
f 67//90 75//90 73//90
f 67//90 73//90 71//90
f 71//90 68//90 67//90
f 163//90 179//90 177//90
f 163//90 177//90 175//90
f 175//90 173//90 171//90
f 175//90 171//90 169//90
f 175//90 169//90 167//90
f 163//90 175//90 167//90
f 167//90 164//90 163//90
f 181//90 197//90 195//90
f 181//90 195//90 193//90
f 193//90 191//90 189//90
f 193//90 189//90 187//90
f 193//90 187//90 185//90
f 181//90 193//90 185//90
f 185//90 182//90 181//90
