o RollText
v -23.964847564697266 2.5 -4.55859375
v -22.500003814697266 2.5 -4.564453125
v -22.500003814697266 0 -4.564453125
v -23.964847564697266 0 -4.55859375
v -20.625003814697266 2.5 -4.44140625
v -20.625003814697266 0 -4.44140625
v -19.346195936203003 2.5 -4.1594236493110657
v -19.346195936203003 0 -4.1594236493110657
v -18.333988189697266 2.5 -3.6650390625
v -18.333988189697266 0 -3.6650390625
v -17.674808502197266 2.5 -3.016845703125
v -17.674808502197266 0 -3.016845703125
v -17.510013580322266 2.5 -2.65704345703125
v -17.510013580322266 0 -2.65704345703125
v -17.455081939697266 2.5 -2.2734375
v -17.455081939697266 0 -2.2734375
v -17.509372789412737 2.5 -1.910064697265625
v -17.509372789412737 0 -1.910064697265625
v -17.672245293855667 2.5 -1.5816650390625
v -17.672245293855667 0 -1.5816650390625
v -18.323734998703003 2.5 -1.02978515625
v -18.323734998703003 0 -1.02978515625
v -19.40955051779747 2.5 -0.6177978515625
v -19.40955051779747 0 -0.6177978515625
v -20.929691314697266 2.5 -0.345703125
v -20.929691314697266 0 -0.345703125
v -19.888920545578003 2.5 0.010986417531967163
v -19.888920545578003 0 0.010986417531967163
v -19.122074127197266 2.5 0.4951171875
v -19.122074127197266 0 0.4951171875
v -18.50757360458374 2.5 1.215087890625
v -18.50757360458374 0 1.215087890625
v -17.923831939697266 2.5 2.279296875
v -17.923831939697266 0 2.279296875
v -15.984378814697266 2.5 3.439453125
v -15.984378814697266 0 3.439453125
v -21.656253814697266 2.5 3.439453125
v -21.656253814697266 0 3.439453125
v -22.346195936203003 2.5 1.9306640625
v -22.346195936203003 0 1.9306640625
v -22.962894439697266 2.5 0.884765625
v -22.962894439697266 0 0.884765625
v -23.204228520393372 2.5 0.6591796875
v -23.204228520393372 0 0.6591796875
v -23.56494665145874 2.5 0.498046875
v -23.56494665145874 0 0.498046875
v -24.644535064697266 2.5 0.369140625
v -24.644535064697266 0 0.369140625
v -26.589847564697266 2.5 0.369140625
v -26.589847564697266 0 0.369140625
v -26.589847564697266 2.5 1.58203125
v -26.589847564697266 0 1.58203125
v -23.654300689697266 2.5 3.439453125
v -23.654300689697266 0 3.439453125
v -33.656253814697266 2.5 3.439453125
v -33.656253814697266 0 3.439453125
v -30.720706939697266 2.5 1.58203125
v -30.720706939697266 0 1.58203125
v -30.720706939697266 2.5 -2.689453125
v -30.720706939697266 0 -2.689453125
v -33.656253814697266 2.5 -4.55859375
v -33.656253814697266 0 -4.55859375
v -23.970706939697266 2.5 -1.212890625
v -23.156253814697266 2.5 -1.224609375
v -23.156253814697266 0 -1.224609375
v -23.970706939697266 0 -1.212890625
v -22.57690891623497 2.5 -1.2791748046875
v -22.57690891623497 0 -1.2791748046875
v -22.163090467453003 2.5 -1.44287109375
v -22.163090467453003 0 -1.44287109375
v -21.914799004793167 2.5 -1.7156982421875
v -21.914799004793167 0 -1.7156982421875
v -21.832035064697266 2.5 -2.09765625
v -21.832035064697266 0 -2.09765625
v -21.940434217453003 2.5 -2.572998046875
v -21.940434217453003 0 -2.572998046875
v -22.265628814697266 2.5 -2.8623046875
v -22.265628814697266 0 -2.8623046875
v -22.90576696395874 2.5 -3.0095213055610657
v -22.90576696395874 0 -3.0095213055610657
v -23.958988189697266 2.5 -3.05859375
v -23.958988189697266 0 -3.05859375
v -26.589847564697266 2.5 -3.05859375
v -26.589847564697266 0 -3.05859375
v -26.589847564697266 2.5 -1.212890625
v -26.589847564697266 0 -1.212890625
v -5.8390536904335022 2.5 -4.7438964173197746
v -4.4714391231536865 2.5 -4.4912107586860657
v -4.4714391231536865 0 -4.4912107586860657
v -5.8390536904335022 0 -4.7438964173197746
v -3.2037997841835022 2.5 -4.0700681582093239
v -3.2037997841835022 0 -4.0700681582093239
v -2.0361356735229492 2.5 -3.48046875
v -2.0361356735229492 0 -3.48046875
v -1.0581697672605515 2.5 -2.7769774720072746
v -1.0581697672605515 0 -2.7769774720072746
v -0.35962235927581787 2.5 -2.0141599774360657
v -0.35962235927581787 0 -2.0141599774360657
v 0.059506282210350037 2.5 -1.1920164003968239
v 0.059506282210350037 0 -1.1920164003968239
v 0.19921588897705078 2.5 -0.310546875
v 0.19921588897705078 0 -0.310546875
v 0.058407649397850037 2.5 0.50701904296875
v 0.058407649397850037 0 0.50701904296875
v -0.36401689052581787 2.5 1.266357421875
v -0.36401689052581787 0 1.266357421875
v -1.0680574625730515 2.5 1.96746826171875
v -1.0680574625730515 0 1.96746826171875
v -2.0537137985229492 2.5 2.6103515625
v -2.0537137985229492 0 2.6103515625
v -3.2330966591835022 2.5 3.1473998017609119
v -3.2330966591835022 0 3.1473998017609119
v -4.5183141231536865 2.5 3.5310057699680328
v -4.5183141231536865 0 3.5310057699680328
v -5.9093661904335022 2.5 3.7611694000661373
v -5.9093661904335022 0 3.7611694000661373
v -7.4062528610229492 2.5 3.837890625
v -7.4062528610229492 0 3.837890625
v -8.88061809539795 2.5 3.7600707672536373
v -8.88061809539795 0 3.7600707672536373
v -10.262698173522949 2.5 3.5266112387180328
v -10.262698173522949 0 3.5266112387180328
v -11.552493095397949 2.5 3.1375121064484119
v -11.552493095397949 0 3.1375121064484119
v -12.750002861022949 2.5 2.5927734375
v -12.750002861022949 0 2.5927734375
v -13.757449150085449 2.5 1.94549560546875
v -13.757449150085449 0 1.94549560546875
v -14.477053642272949 2.5 1.248779296875
v -14.477053642272949 0 1.248779296875
v -14.908816337585449 2.5 0.50262451171875
v -14.908816337585449 0 0.50262451171875
v -15.052737236022949 2.5 -0.29296875
v -15.052737236022949 0 -0.29296875
v -14.9097318649292 2.5 -1.1892698183655739
v -14.9097318649292 0 -1.1892698183655739
v -14.480715751647949 2.5 -2.0207517743110657
v -14.480715751647949 0 -2.0207517743110657
v -13.7656888961792 2.5 -2.7874144837260246
v -13.7656888961792 0 -2.7874144837260246
v -12.764651298522949 2.5 -3.4892578125
v -12.764651298522949 0 -3.4892578125
v -11.565494120121002 2.5 -4.0750120058655739
v -11.565494120121002 0 -4.0750120058655739
v -10.256107091903687 2.5 -4.4934080243110657
v -10.256107091903687 0 -4.4934080243110657
v -8.8364902138710022 2.5 -4.7444457337260246
v -8.8364902138710022 0 -4.7444457337260246
v -7.3066434860229492 2.5 -4.828125
v -7.3066434860229492 0 -4.828125
v -8.01910699903965 2.5 -3.3945922181010246
v -8.5568879842758179 2.5 -3.2424314618110657
v -8.5568879842758179 0 -3.2424314618110657
v -8.01910699903965 0 -3.3945922181010246
v -9.0371736735105515 2.5 -2.9888303652405739
v -9.0371736735105515 0 -2.9888303652405739
v -9.45996379852295 2.5 -2.6337890625
v -9.45996379852295 0 -2.6337890625
v -9.8047519326210022 2.5 -2.19854736328125
v -9.8047519326210022 0 -2.19854736328125
v -10.051028966903687 2.5 -1.704345703125
v -10.051028966903687 0 -1.704345703125
v -10.198794901371002 2.5 -1.15118408203125
v -10.198794901371002 0 -1.15118408203125
v -10.248049736022949 2.5 -0.5390625
v -10.248049736022949 0 -0.5390625
v -10.199710428714752 2.5 0.067932229489088058
v -10.199710428714752 0 0.067932229489088058
v -10.054691076278687 2.5 0.61157235503196716
v -10.054691076278687 0 0.61157235503196716
v -9.8129916787147522 2.5 1.0918579436838627
v -9.8129916787147522 0 1.0918579436838627
v -9.47461223602295 2.5 1.5087890625
v -9.47461223602295 0 1.5087890625
v -9.0563994795084 2.5 1.84588623046875
v -9.0563994795084 0 1.84588623046875
v -8.5751985311508179 2.5 2.086669921875
v -8.5751985311508179 0 2.086669921875
v -8.0310091227293015 2.5 2.23114013671875
v -8.0310091227293015 0 2.23114013671875
v -7.4238309860229492 2.5 2.279296875
v -7.4238309860229492 0 2.279296875
v -6.81427301466465 2.5 2.2313232421875
v -6.81427301466465 0 2.2313232421875
v -6.2688020467758179 2.5 2.08740234375
v -6.2688020467758179 0 2.08740234375
v -5.7874178141355515 2.5 1.8475341796875
v -5.7874178141355515 0 1.8475341796875
v -5.3701200485229492 2.5 1.51171875
v -5.3701200485229492 0 1.51171875
v -5.0330232828855515 2.5 1.095703125
v -5.0330232828855515 0 1.095703125
v -4.7922395467758179 2.5 0.615234375
v -4.7922395467758179 0 0.615234375
v -4.64776910841465 2.5 0.0703125
v -4.64776910841465 0 0.0703125
v -4.5996122360229492 2.5 -0.5390625
v -4.5996122360229492 0 -0.5390625
v -4.6490507125854492 2.5 -1.1488034427165985
v -4.6490507125854492 0 -1.1488034427165985
v -4.7973661422729492 2.5 -1.7006832361221314
v -4.7973661422729492 0 -1.7006832361221314
v -5.0445585250854492 2.5 -2.1947018802165985
v -5.0445585250854492 0 -2.1947018802165985
v -5.3906278610229492 2.5 -2.630859375
v -5.3906278610229492 0 -2.630859375
v -5.8143340498209 2.5 -2.9871826171875
v -5.8143340498209 0 -2.9871826171875
v -6.2944368124008179 2.5 -3.24169921875
v -6.2944368124008179 0 -3.24169921875
v -6.8309358805418015 2.5 -3.3944091796875
v -6.8309358805418015 0 -3.3944091796875
v -7.4238309860229492 2.5 -3.4453125
v -7.4238309860229492 0 -3.4453125
v 16.751951217651367 2.5 3.439453125
v 1.1601543426513672 2.5 3.439453125
v 1.1601543426513672 0 3.439453125
v 16.751951217651367 0 3.439453125
v 4.0898418426513672 2.5 1.587890625
v 4.0898418426513672 0 1.587890625
v 4.0898418426513672 2.5 -2.68359375
v 4.0898418426513672 0 -2.68359375
v 1.1601543426513672 2.5 -4.55859375
v 1.1601543426513672 0 -4.55859375
v 11.156248092651367 2.5 -4.55859375
v 11.156248092651367 0 -4.55859375
v 8.2265605926513672 2.5 -2.68359375
v 8.2265605926513672 0 -2.68359375
v 8.2265605926513672 2.5 1.857421875
v 8.2265605926513672 0 1.857421875
v 13.160154342651367 2.5 1.857421875
v 13.160154342651367 0 1.857421875
v 16.751951217651367 2.5 -0.84375
v 16.751951217651367 0 -0.84375
v 33.140621185302734 2.5 3.439453125
v 17.548826217651367 2.5 3.439453125
v 17.548826217651367 0 3.439453125
v 33.140621185302734 0 3.439453125
v 20.478513717651367 2.5 1.587890625
v 20.478513717651367 0 1.587890625
v 20.478513717651367 2.5 -2.68359375
v 20.478513717651367 0 -2.68359375
v 17.548826217651367 2.5 -4.55859375
v 17.548826217651367 0 -4.55859375
v 27.544919967651367 2.5 -4.55859375
v 27.544919967651367 0 -4.55859375
v 24.615232467651367 2.5 -2.68359375
v 24.615232467651367 0 -2.68359375
v 24.615232467651367 2.5 1.857421875
v 24.615232467651367 0 1.857421875
v 29.548826217651367 2.5 1.857421875
v 29.548826217651367 0 1.857421875
v 33.140621185302734 2.5 -0.84375
v 33.140621185302734 0 -0.84375
vn -0.005859375 0 -11.15625
vn 0.1171875 0 -3.33984375
vn 0.40502947568893433 0 -3.1538078784942627
vn 0.7763671875 0 -2.291015625
vn 1.1425779461860657 0 -1.6713874340057373
vn 1.00799560546875 0 -0.823974609375
vn 0.743408203125 0 -0.2197265625
vn 0.746978759765625 0 -0.0006407909095287323
vn 0.6917724609375 0 0.21716335415840149
vn 0.880279541015625 0 0.814362209290266
vn 0.9638671875 0 1.737305223941803
vn 0.68408203125 0 2.6059563159942627
vn 0.62878426909446716 0 0.47937002778053284
vn 0.8408203125 0 -1.8076171875
vn 1.2041014730930328 0 -1.3813469409942627
vn 1.7841796875 0 -1.1982421875
vn 2.224365234375 0 -2.5231947898864746
vn 1.16015625 0 3.732421875
vn -1.5087890625 0 6.3618171215057373
vn -2.5546875 0 1.306640625
vn -1.271484375 0 0.85803258419036865
vn -0.38671875 0 0.60205221176147461
vn -0.2900390625 0 1.440306544303894
vn -0.12890625 0 3.0249009132385254
vn 1.212890625 0 1.9453125
vn 3.0703125 0 -2.935546875
vn 1.857421875 0 7.06640625
vn -1.857421875 0 7.06640625
vn -6.12890625 0 -2.935546875
vn -6.140625 0 2.935546875
vn -1.869140625 0 -6.755859375
vn -0.01171875 0 -3.43359375
vn -0.0662841796875 0 -1.3937980234622955
vn -0.21826171875 0 -0.9931633472442627
vn -0.4365234375 0 -0.662109911441803
vn -0.65478515625 0 -0.3310554027557373
vn -0.8572998046875 0 0.025635212659835815
vn -0.7646484375 0 0.43359375
vn -0.43652325868606567 0 0.9653327465057373
vn -0.1962890625 0 1.693359375
vn -0.049072444438934326 0 3.6840806007385254
vn 1.845703125 0 2.630859375
vn 1.845703125 0 -2.619140625
vn 0.33691424131393433 0 -2.8352043628692627
vn 0.67382825911045074 0 -2.63525390625
vn 1.0107420086860657 0 -2.4353034496307373
vn 1.2930906862020493 0 -2.1456300169229507
vn 1.4663087725639343 0 -1.6765133142471314
vn 1.5849610716104507 0 -1.1176760494709015
vn 1.7036131024360657 0 -0.55883824825286865
vn 1.6990354433655739 0 0.0010986328125
vn 1.576904296875 0 0.56323277950286865
vn 1.46044921875 0 1.1264651119709015
vn 1.343994140625 0 1.6896969079971314
vn 1.1799315400421619 0 2.1650391966104507
vn 0.92065420746803284 0 2.4646003246307373
vn 0.61376959830522537 0 2.67626953125
vn 0.30688485503196716 0 2.8879387378692627
vn -0.0010986328125 0 2.971251904964447
vn -0.31127938628196716 0 2.8564453125
vn -0.62255866080522537 0 2.671875
vn -0.93383780121803284 0 2.4873046875
vn -1.1920165009796619 0 2.2049560546875
vn -1.343994140625 0 1.72705078125
vn -1.44287109375 0 1.1513671875
vn -1.541748046875 0 0.57568359375
vn -1.6918943300843239 0 0.00091552734375
vn -1.7277830243110657 0 -0.572021484375
vn -1.5981446653604507 0 -1.14404296875
vn -1.4685060381889343 0 -1.716064453125
vn -1.2875975221395493 0 -2.200194776058197
vn -1.0041502118110657 0 -2.5085442066192627
vn -0.66943372786045074 0 -2.72900390625
vn -0.33471697568893433 0 -2.9494636058807373
vn 0.00054931640625 0 -2.9974365234375
vn 0.20288103818893433 0 1.1330569982528687
vn 0.40576185286045074 0 1.0180666744709015
vn 0.60864239931106567 0 0.90307581424713135
vn 0.79028300195932388 0 0.76757825911045074
vn 0.929443359375 0 0.5910651683807373
vn 1.04736328125 0 0.39404296875
vn 1.165283203125 0 0.1970207691192627
vn 1.2191163115203381 0 0.00091552734375
vn 1.1506348550319672 0 -0.1933586597442627
vn 1.0239257141947746 0 -0.38671875
vn 0.89721670746803284 0 -0.5800788402557373
vn 0.75402828678488731 0 -0.75659219920635223
vn 0.577880859375 0 -0.89941370487213135
vn 0.38525390625 0 -1.0253903567790985
vn 0.192626953125 0 -1.1513675451278687
vn 0.00018310546875 0 -1.2167361080646515
vn -0.19189453125 0 -1.1550289392471314
vn -0.3837890625 0 -1.0268552005290985
vn -0.57568359375 0 -0.89868199825286865
vn -0.7518310546875 0 -0.75439453125
vn -0.896484375 0 -0.57788050174713135
vn -1.025390625 0 -0.38525417447090149
vn -1.154296875 0 -0.19262731075286865
vn -1.2191159427165985 0 0.0012816041707992554
vn -1.1616207361221314 0 0.19775390625
vn -1.0458984375 0 0.3955078125
vn -0.93017613887786865 0 0.59326171875
vn -0.79248073697090149 0 0.76977552473545074
vn -0.61083984375 0 0.90380895137786865
vn -0.4072265625 0 1.0166018307209015
vn -0.20361328125 0 1.1293941736221314
vn -0.00018303841352462769 0 1.1881711184978485
vn 4.283203125 0 15.591796875
vn -1.8515625 0 12.662109375
vn -6.123046875 0 -2.9296875
vn -6.146484375 0 2.9296875
vn -1.875 0 -7.06640625
vn 1.875 0 -7.06640625
vn 6.416015625 0 2.9296875
vn 4.541015625 0 -4.93359375
vn -2.701171875 0 -8.525390625
vn 1.58203125 0 -3.591796875
vn 4.283203125 0 15.591794967651367
vn -1.8515625 0 12.662107467651367
vn -2.701171875 0 -8.5253887176513672
vn 1.58203125 0 -3.5917949676513672
vn 0 1 0
g RollText
f 1//1 2//2 3//2 4//1
f 2//2 5//3 6//3 3//2
f 5//3 7//4 8//4 6//3
f 7//4 9//5 10//5 8//4
f 9//5 11//6 12//6 10//5
f 11//6 13//7 14//7 12//6
f 13//7 15//8 16//8 14//7
f 15//8 17//9 18//9 16//8
f 17//9 19//10 20//10 18//9
f 19//10 21//11 22//11 20//10
f 21//11 23//12 24//12 22//11
f 23//12 25//13 26//13 24//12
f 25//13 27//14 28//14 26//13
f 27//14 29//15 30//15 28//14
f 29//15 31//16 32//16 30//15
f 31//16 33//17 34//17 32//16
f 33//17 35//18 36//18 34//17
f 35//18 37//19 38//19 36//18
f 37//19 39//20 40//20 38//19
f 39//20 41//21 42//21 40//20
f 41//21 43//22 44//22 42//21
f 43//22 45//23 46//23 44//22
f 45//23 47//24 48//24 46//23
f 47//24 49//25 50//25 48//24
f 49//25 51//26 52//26 50//25
f 51//26 53//27 54//27 52//26
f 53//27 55//28 56//28 54//27
f 55//28 57//29 58//29 56//28
f 57//29 59//30 60//30 58//29
f 59//30 61//31 62//31 60//30
f 61//31 1//1 4//1 62//31
f 63//32 64//33 65//33 66//32
f 64//33 67//34 68//34 65//33
f 67//34 69//35 70//35 68//34
f 69//35 71//36 72//36 70//35
f 71//36 73//37 74//37 72//36
f 73//37 75//38 76//38 74//37
f 75//38 77//39 78//39 76//38
f 77//39 79//40 80//40 78//39
f 79//40 81//41 82//41 80//40
f 81//41 83//42 84//42 82//41
f 83//42 85//43 86//43 84//42
f 85//43 63//32 66//32 86//43
f 87//44 88//45 89//45 90//44
f 88//45 91//46 92//46 89//45
f 91//46 93//47 94//47 92//46
f 93//47 95//48 96//48 94//47
f 95//48 97//49 98//49 96//48
f 97//49 99//50 100//50 98//49
f 99//50 101//51 102//51 100//50
f 101//51 103//52 104//52 102//51
f 103//52 105//53 106//53 104//52
f 105//53 107//54 108//54 106//53
f 107//54 109//55 110//55 108//54
f 109//55 111//56 112//56 110//55
f 111//56 113//57 114//57 112//56
f 113//57 115//58 116//58 114//57
f 115//58 117//59 118//59 116//58
f 117//59 119//60 120//60 118//59
f 119//60 121//61 122//61 120//60
f 121//61 123//62 124//62 122//61
f 123//62 125//63 126//63 124//62
f 125//63 127//64 128//64 126//63
f 127//64 129//65 130//65 128//64
f 129//65 131//66 132//66 130//65
f 131//66 133//67 134//67 132//66
f 133//67 135//68 136//68 134//67
f 135//68 137//69 138//69 136//68
f 137//69 139//70 140//70 138//69
f 139//70 141//71 142//71 140//70
f 141//71 143//72 144//72 142//71
f 143//72 145//73 146//73 144//72
f 145//73 147//74 148//74 146//73
f 147//74 149//75 150//75 148//74
f 149//75 87//44 90//44 150//75
f 151//76 152//77 153//77 154//76
f 152//77 155//78 156//78 153//77
f 155//78 157//79 158//79 156//78
f 157//79 159//80 160//80 158//79
f 159//80 161//81 162//81 160//80
f 161//81 163//82 164//82 162//81
f 163//82 165//83 166//83 164//82
f 165//83 167//84 168//84 166//83
f 167//84 169//85 170//85 168//84
f 169//85 171//86 172//86 170//85
f 171//86 173//87 174//87 172//86
f 173//87 175//88 176//88 174//87
f 175//88 177//89 178//89 176//88
f 177//89 179//90 180//90 178//89
f 179//90 181//91 182//91 180//90
f 181//91 183//92 184//92 182//91
f 183//92 185//93 186//93 184//92
f 185//93 187//94 188//94 186//93
f 187//94 189//95 190//95 188//94
f 189//95 191//96 192//96 190//95
f 191//96 193//97 194//97 192//96
f 193//97 195//98 196//98 194//97
f 195//98 197//99 198//99 196//98
f 197//99 199//100 200//100 198//99
f 199//100 201//101 202//101 200//100
f 201//101 203//102 204//102 202//101
f 203//102 205//103 206//103 204//102
f 205//103 207//104 208//104 206//103
f 207//104 209//105 210//105 208//104
f 209//105 211//106 212//106 210//105
f 211//106 213//107 214//107 212//106
f 213//107 151//76 154//76 214//107
f 215//108 216//109 217//109 218//108
f 216//109 219//110 220//110 217//109
f 219//110 221//111 222//111 220//110
f 221//111 223//112 224//112 222//111
f 223//112 225//113 226//113 224//112
f 225//113 227//114 228//114 226//113
f 227//114 229//115 230//115 228//114
f 229//115 231//116 232//116 230//115
f 231//116 233//117 234//117 232//116
f 233//117 215//108 218//108 234//117
f 235//118 236//119 237//119 238//118
f 236//119 239//110 240//110 237//119
f 239//110 241//111 242//111 240//110
f 241//111 243//112 244//112 242//111
f 243//112 245//113 246//113 244//112
f 245//113 247//114 248//114 246//113
f 247//114 249//115 250//115 248//114
f 249//115 251//120 252//120 250//115
f 251//120 253//121 254//121 252//120
f 253//121 235//118 238//118 254//121
f 61//122 83//122 81//122
f 1//122 61//122 81//122
f 83//122 61//122 59//122
f 83//122 59//122 57//122
f 57//122 55//122 53//122
f 57//122 53//122 51//122
f 57//122 51//122 49//122
f 39//122 37//122 35//122
f 41//122 39//122 35//122
f 43//122 41//122 35//122
f 45//122 43//122 35//122
f 45//122 35//122 33//122
f 45//122 33//122 31//122
f 45//122 31//122 29//122
f 47//122 45//122 29//122
f 47//122 29//122 27//122
f 49//122 47//122 27//122
f 49//122 27//122 25//122
f 49//122 25//122 23//122
f 49//122 23//122 21//122
f 49//122 21//122 19//122
f 49//122 19//122 17//122
f 49//122 17//122 15//122
f 49//122 15//122 13//122
f 57//122 49//122 13//122
f 13//122 11//122 9//122
f 13//122 9//122 7//122
f 13//122 7//122 5//122
f 13//122 5//122 2//122
f 13//122 2//122 1//122
f 1//122 81//122 79//122
f 13//122 1//122 79//122
f 13//122 79//122 77//122
f 13//122 77//122 75//122
f 13//122 75//122 73//122
f 13//122 73//122 71//122
f 13//122 71//122 69//122
f 13//122 69//122 67//122
f 57//122 13//122 67//122
f 57//122 67//122 64//122
f 57//122 64//122 63//122
f 57//122 63//122 85//122
f 57//122 85//122 83//122
f 147//122 151//122 213//122
f 149//122 147//122 213//122
f 87//122 149//122 213//122
f 87//122 213//122 211//122
f 87//122 211//122 209//122
f 87//122 209//122 207//122
f 87//122 207//122 205//122
f 87//122 205//122 203//122
f 87//122 203//122 201//122
f 152//122 151//122 147//122
f 155//122 152//122 147//122
f 157//122 155//122 147//122
f 159//122 157//122 147//122
f 161//122 159//122 147//122
f 161//122 147//122 145//122
f 163//122 161//122 145//122
f 165//122 163//122 145//122
f 165//122 145//122 143//122
f 167//122 165//122 143//122
f 169//122 167//122 143//122
f 169//122 143//122 141//122
f 171//122 169//122 141//122
f 171//122 141//122 139//122
f 173//122 171//122 139//122
f 173//122 139//122 137//122
f 175//122 173//122 137//122
f 175//122 137//122 135//122
f 175//122 135//122 133//122
f 177//122 175//122 133//122
f 177//122 133//122 131//122
f 179//122 177//122 131//122
f 179//122 131//122 129//122
f 179//122 129//122 127//122
f 181//122 179//122 127//122
f 181//122 127//122 125//122
f 181//122 125//122 123//122
f 183//122 181//122 123//122
f 183//122 123//122 121//122
f 185//122 183//122 121//122
f 185//122 121//122 119//122
f 187//122 185//122 119//122
f 187//122 119//122 117//122
f 189//122 187//122 117//122
f 189//122 117//122 115//122
f 191//122 189//122 115//122
f 193//122 191//122 115//122
f 193//122 115//122 113//122
f 195//122 193//122 113//122
f 197//122 195//122 113//122
f 197//122 113//122 111//122
f 199//122 197//122 111//122
f 201//122 199//122 111//122
f 201//122 111//122 109//122
f 87//122 201//122 109//122
f 87//122 109//122 107//122
f 87//122 107//122 105//122
f 87//122 105//122 103//122
f 87//122 103//122 101//122
f 87//122 101//122 99//122
f 87//122 99//122 97//122
f 87//122 97//122 95//122
f 87//122 95//122 93//122
f 87//122 93//122 91//122
f 91//122 88//122 87//122
f 215//122 233//122 231//122
f 215//122 231//122 229//122
f 227//122 225//122 223//122
f 227//122 223//122 221//122
f 229//122 227//122 221//122
f 229//122 221//122 219//122
f 215//122 229//122 219//122
f 219//122 216//122 215//122
f 235//122 253//122 251//122
f 235//122 251//122 249//122
f 247//122 245//122 243//122
f 247//122 243//122 241//122
f 249//122 247//122 241//122
f 249//122 241//122 239//122
f 235//122 249//122 239//122
f 239//122 236//122 235//122
